# xmcd CD database file
#
# Track frame offsets:
#	150
#	13506
#	31829
#	46430
#	61519
#	76486
#	87641
#	108113
#	124862
#	139633
#	152975
#	169972
#	184526
#	199084
#	219690
#
# Disc length: 3124 seconds
#
# Revision: 0
# Processed by: cddbd v1.5.2PL0 Copyright (c) Steve Scherf et al.
# Submitted via: CDex 1.70beta2
#
DISCID=c60c320f
DTITLE=Colinda - Les flammes d'enfer
DYEAR=2009
DGENRE=Country
TTITLE0=Bajou noir
TTITLE1=Sugar bee
TTITLE2=Back home in Louisiana
TTITLE3=Un autre soir d'ennui
TTITLE4=Bon ton roulet
TTITLE5=Chicot two-step
TTITLE6=Bernadette
TTITLE7=Bosco stomp
TTITLE8=Les flammes d'enfer
TTITLE9=Je vais t'aimer quand meme
TTITLE10=Bal de balfa
TTITLE11=Two left feet
TTITLE12=Dance on the Bajou
TTITLE13=Toot toot
TTITLE14=On the banks of the old Pontcharttrain
EXTD=YEAR: 2009
EXTT0=
EXTT1=
EXTT2=
EXTT3=
EXTT4=
EXTT5=
EXTT6=
EXTT7=
EXTT8=
EXTT9=
EXTT10=
EXTT11=
EXTT12=
EXTT13=
EXTT14=
PLAYORDER=
